<?xml version="1.0" encoding="UTF-8"?><svg id="Layer_1" xmlns="http://www.w3.org/2000/svg" viewBox="0 0 705.11 134.85"><path d="M185.95,59.93c10.54,0,13.1,4.95,13.1,12.65v13.75h-8.09v-12.56c0-4.93-.84-7.59-5.21-7.59-1.51,0-2.97,.29-4.13,.8v19.34h-8.09v-24.09c3.64-1.45,7.64-2.32,12.42-2.32m-69.52-8.97h-8.06v35.37h8.06V50.96Zm.02,21.45l8.79-11.55h9.18l-9.19,11.26,10.01,14.21h-9.56l-9.25-13.92Zm23.95-10.17c3.36-1.38,7.82-2.32,12.08-2.32,9.53,0,14.12,4.8,14.12,13.38s-4.67,13.61-13.56,13.61c-1.51,0-2.86-.07-4.58-.39v9.71h-8.06V62.25m12.02,3.85c-1.43,0-2.82,.24-3.96,.77v13.54c.8,.31,2.38,.57,3.63,.57,4.35,0,6.2-2.68,6.2-7.6s-2.33-7.27-5.87-7.27m-69.83-7.96c-4.92-8.89-14.81-14.59-20.71-14.59-8.46,0-11.89,8.91-11.89,16.96,0,3.74,1.28,7.12,2.34,9.76l.1,.24s1.48-.96,2.78-1.67c-1.34-3.31-2.02-5.85-2.02-8.33,0-5.15,1.26-9.36,3.46-11.56,1.28-1.28,3.27-2.2,5.23-2.2,4.66,0,12.64,4.51,17.09,11.77,1.23-.2,2.12-.32,3.62-.38m-9.22,32.95l-.11-.12-.15,.05c-1.71,.61-3.47,.91-5.37,.91-6.24,0-13.06-2.79-17.38-7.1-2.17-2.17-3.35-4.51-3.35-6.35,0-2.52,.82-4.54,2.81-6.07-.39-.9-.8-1.95-1.18-3.09-3.33,2.22-4.84,5.31-4.84,9.17,0,2.73,1.49,5.81,4.29,8.62,3.89,3.89,11.09,8.04,19.64,8.04,2.69,0,5.25-.52,7.61-1.56l.34-.15-.26-.26c-.72-.71-1.42-1.43-2.05-2.09m-3.65-22.28v-2.8c-.67-.19-1.16-.29-1.97-.29-2.84,0-4.45,2.22-4.69,4.44-.18,1.69,.29,4.14,3.24,8.7,1.19-.16,2.39-.26,3.55-.29-2.56-4.76-3.19-6.43-3.19-7.65,0-1.42,.82-2.14,2.47-2.14,.22,0,.4,0,.58,.02m1.2,15.72c2.63,0,5.31,.33,8.09,1.16l.95-3.11c-3.13-.93-6.18-1.31-9.04-1.31s-5.92,.38-9.04,1.31l.95,3.11c2.79-.83,5.47-1.16,8.09-1.16m2.9-23.23l-2.9-2.9-2.9,2.9,2.9,2.9,2.9-2.9Zm-9.78,17.96c-3.39-3.16-3.92-4.03-3.92-4.99,0-.69,.46-1.14,1.29-1.29-.21-.87-.29-1.68-.27-2.45-2.57-.07-4.37,1.38-4.37,3.48,0,1.65,.63,3.16,4.03,6.07l.3-.09c.97-.29,1.95-.53,2.94-.73m8.08-10.45c.18-.01,.36-.02,.58-.02,1.66,0,2.47,.72,2.47,2.14,0,1.22-.63,2.89-3.19,7.65,1.17,.03,2.36,.13,3.55,.29,2.94-4.56,3.42-7.02,3.24-8.7-.24-2.22-1.85-4.44-4.69-4.44-.8,0-1.3,.1-1.97,.29v2.8m5.68,10.45c.99,.2,1.97,.44,2.94,.73l.3,.09c3.4-2.92,4.03-4.42,4.03-6.07,0-2.09-1.79-3.55-4.37-3.48,.03,.77-.06,1.58-.27,2.45,.83,.15,1.29,.6,1.29,1.29,0,.96-.53,1.83-3.92,4.99m15.51-14.51c-1.68-1.71-4.48-3.75-9.75-3.75-.97,0-1.93,.06-2.84,.19l-.28,.04,.08,.28c.24,.84,.43,1.74,.57,2.67l.04,.24,.24-.03c.74-.09,1.46-.14,2.19-.14,4.17,0,6.24,1.52,7.49,2.79,1.3,1.32,2.04,3.07,2.04,4.78,0,2.2-1.14,4.97-2.24,7.66-.55,1.33-1.54,3.9-2.08,6.09-1.02,4.16-3.04,11.29-7.13,11.29-1.35,0-2.18-.13-4.08-1.65-1.04,.59-2.13,1.08-3.27,1.47,3.06,2.77,4.89,3.44,7.36,3.44,6.63,0,9.09-9.01,10.24-13.77,.35-1.45,1.04-3.45,1.93-5.63,1.22-2.98,2.48-6.06,2.48-8.92,0-2.58-1.09-5.16-2.98-7.09m148.28,21.31h-3.39v-12.02h-14.89v12.02h-3.39v-26.35h3.39v11.29h14.89v-11.29h3.39v26.35Zm7.85-8.97c.13,4.42,2.92,6.52,6.39,6.52,2.15,0,3.69-.52,5.41-1.8v2.96c-1.55,1.2-3.52,1.67-5.79,1.67-5.49,0-9.18-3.73-9.18-9.74s3.43-10.09,8.5-10.09,7.81,3.73,7.81,9.31v1.16h-13.13Zm.17-2.53h9.83c-.13-2.79-1.55-5.19-4.64-5.19-2.53,0-4.59,1.67-5.19,5.19Zm18.97,11.5v-16.31h-3.99v-2.75h3.99v-5.02h3.22v5.02h4.42v2.75h-4.42v16.31h-3.22Zm23.73-19.05v2.4c1.12-1.5,3.18-2.79,5.62-2.79,4.33,0,6.69,2.79,6.69,6.95v12.49h-3.26v-11.97c0-2.66-1.33-4.51-4.21-4.51-2.23,0-4.16,1.5-4.85,3.56v12.92h-3.22v-19.05h3.22Zm19.31,10.09c.13,4.42,2.92,6.52,6.39,6.52,2.15,0,3.69-.52,5.41-1.8v2.96c-1.55,1.2-3.52,1.67-5.79,1.67-5.49,0-9.18-3.73-9.18-9.74s3.43-10.09,8.5-10.09,7.81,3.73,7.81,9.31v1.16h-13.13Zm.17-2.53h9.83c-.13-2.79-1.55-5.19-4.64-5.19-2.53,0-4.59,1.67-5.19,5.19Zm18.97,11.5v-16.31h-3.99v-2.75h3.99v-5.02h3.22v5.02h4.42v2.75h-4.42v16.31h-3.22Zm31.5-19.05h3.13l-5.62,19.05h-3.13l-3.95-14.46-3.99,14.46h-3.13l-5.62-19.05h3.22l4.21,14.55,3.91-14.55h2.88l3.91,14.55,4.21-14.55Zm8.32,10.09c.13,4.42,2.92,6.52,6.39,6.52,2.15,0,3.69-.52,5.41-1.8v2.96c-1.55,1.2-3.52,1.67-5.79,1.67-5.49,0-9.18-3.73-9.18-9.74s3.43-10.09,8.5-10.09,7.81,3.73,7.81,9.31v1.16h-13.13Zm.17-2.53h9.83c-.13-2.79-1.55-5.19-4.64-5.19-2.53,0-4.59,1.67-5.19,5.19Zm26.86-4.33c-.52-.34-1.33-.51-2.15-.51-2.02,0-3.78,1.33-4.42,3.56v12.79h-3.22v-19.05h3.22v2.49c.82-1.63,2.62-2.88,4.72-2.88,.82,0,1.5,.13,1.85,.3v3.3Zm15.75,15.84l-8.8-9.44v9.44h-3.22v-27.9h3.22v16.87l8.45-8.02h4.16l-9.36,8.71,9.53,10.34h-3.99Zm13.95-19.05h3.48l5.58,14.98,5.54-14.98h3.39l-7.42,19.05h-3.18l-7.38-19.05Zm31.63,6.39c0-2.36-1.76-3.82-4.55-3.82-2.1,0-3.82,.64-5.41,1.67v-3.05c1.29-.9,3.56-1.59,5.92-1.59,4.51,0,7.17,2.49,7.17,6.52v12.92h-3.13v-1.42c-.73,.77-2.7,1.76-4.93,1.76-3.91,0-7.08-2.32-7.08-6.09,0-3.56,3.17-5.97,7.25-5.97,1.97,0,3.95,.82,4.76,1.55v-2.49Zm0,5.97c-.52-1.42-2.4-2.36-4.42-2.36-2.32,0-4.55,1.03-4.55,3.3s2.23,3.39,4.55,3.39c2.02,0,3.91-.95,4.42-2.36v-1.97Zm11.59-12.36v2.4c1.12-1.5,3.18-2.79,5.62-2.79,4.33,0,6.69,2.79,6.69,6.95v12.49h-3.26v-11.97c0-2.66-1.33-4.51-4.21-4.51-2.23,0-4.16,1.5-4.85,3.56v12.92h-3.22v-19.05h3.22Zm44.97,19.05l-14.72-20.94v20.94h-3.26v-26.35h3.22l14.03,20.04v-20.04h3.22v26.35h-2.49Zm10.34-8.97c.13,4.42,2.92,6.52,6.39,6.52,2.15,0,3.69-.52,5.41-1.8v2.96c-1.55,1.2-3.52,1.67-5.79,1.67-5.49,0-9.18-3.73-9.18-9.74s3.43-10.09,8.5-10.09,7.81,3.73,7.81,9.31v1.16h-13.13Zm.17-2.53h9.83c-.13-2.79-1.55-5.19-4.63-5.19-2.53,0-4.59,1.67-5.19,5.19Zm29.65,9.27c-.95,1.37-3,2.62-5.36,2.62-5.58,0-8.58-4.51-8.58-9.91s3-9.91,8.58-9.91c2.36,0,4.42,1.24,5.36,2.62v-11.07h3.26v27.9h-3.26v-2.23Zm0-11.16c-.99-1.97-2.88-3.13-4.89-3.13-3.65,0-5.79,2.96-5.79,7s2.15,7,5.79,7c2.02,0,3.91-1.16,4.89-3.13v-7.72Zm10.81,4.42c.13,4.42,2.92,6.52,6.39,6.52,2.15,0,3.69-.52,5.41-1.8v2.96c-1.55,1.2-3.52,1.67-5.79,1.67-5.49,0-9.18-3.73-9.18-9.74s3.43-10.09,8.5-10.09,7.81,3.73,7.81,9.31v1.16h-13.13Zm.17-2.53h9.83c-.13-2.79-1.55-5.19-4.63-5.19-2.53,0-4.59,1.67-5.19,5.19Zm26.86-4.33c-.52-.34-1.33-.51-2.15-.51-2.02,0-3.78,1.33-4.42,3.56v12.79h-3.22v-19.05h3.22v2.49c.81-1.63,2.62-2.88,4.72-2.88,.82,0,1.5,.13,1.85,.3v3.3Zm3.73,15.84v-27.9h3.22v27.9h-3.22Zm19.44-12.66c0-2.36-1.76-3.82-4.55-3.82-2.1,0-3.82,.64-5.41,1.67v-3.05c1.29-.9,3.56-1.59,5.92-1.59,4.51,0,7.17,2.49,7.17,6.52v12.92h-3.13v-1.42c-.73,.77-2.7,1.76-4.93,1.76-3.91,0-7.08-2.32-7.08-6.09,0-3.56,3.18-5.97,7.25-5.97,1.97,0,3.95,.82,4.76,1.55v-2.49Zm0,5.97c-.51-1.42-2.4-2.36-4.42-2.36-2.32,0-4.55,1.03-4.55,3.3s2.23,3.39,4.55,3.39c2.02,0,3.91-.95,4.42-2.36v-1.97Zm11.59-12.36v2.4c1.12-1.5,3.17-2.79,5.62-2.79,4.33,0,6.7,2.79,6.7,6.95v12.49h-3.26v-11.97c0-2.66-1.33-4.51-4.21-4.51-2.23,0-4.16,1.5-4.85,3.56v12.92h-3.22v-19.05h3.22Zm30.08,16.82c-.95,1.37-3,2.62-5.36,2.62-5.58,0-8.58-4.51-8.58-9.91s3-9.91,8.58-9.91c2.36,0,4.42,1.24,5.36,2.62v-11.07h3.26v27.9h-3.26v-2.23Zm0-11.16c-.99-1.97-2.88-3.13-4.89-3.13-3.65,0-5.79,2.96-5.79,7s2.15,7,5.79,7c2.02,0,3.91-1.16,4.89-3.13v-7.72Z"/></svg>